<?xml version="1.0" encoding="utf-8"?>
<!-- Generator: Adobe Illustrator 23.0.1, SVG Export Plug-In . SVG Version: 6.00 Build 0)  -->
<svg version="1.1" id="Layer_1" xmlns="http://www.w3.org/2000/svg" xmlns:xlink="http://www.w3.org/1999/xlink" x="0px" y="0px"
	 viewBox="0 0 189 46" style="enable-background:new 0 0 189 46;" xml:space="preserve">
<style type="text/css">
	.st0{fill:#63C665;}
	.st1{fill:#F23E19;}
</style>
<g>
	<path d="M51.53,26.46c0.77,1.48,2.1,2.73,3.61,2.73c1.99,0,3.45-1.18,3.45-4.04c0-5.36-8.66-2.43-8.66-10.55
		c0-4.08,2.4-6.57,5.82-6.57c2.1,0,4.08,1.35,5.32,3.37l-1.82,2.22c-1.02-1.31-2.07-2.56-3.64-2.56c-1.74,0-2.98,1.35-2.98,3.54
		c0,4.75,8.66,2.6,8.66,10.58c0,4.11-2.59,7.04-5.88,7.04c-2.59,0-4.17-1.52-5.88-3.74L51.53,26.46z"/>
	<path d="M61.93,14.63l2.32-0.54l4.39,10.48l4.08-10.48l2.32,0.54l-8.86,22.58L63.8,36.4l3.56-8.53L61.93,14.63z"/>
	<path d="M76.88,27.47c0.8,1.15,1.6,1.89,2.92,1.89c1.05,0,2.35-0.64,2.35-2.16c0-4.42-6.87-1.35-6.87-7.72
		c0-3.17,1.99-5.39,4.52-5.39c1.96,0,3.12,0.71,4.52,2.39l-1.57,2.12c-0.83-1.04-1.46-1.65-2.68-1.65c-1.13,0-2.15,0.47-2.15,2.09
		c0,3.84,6.87,0.98,6.87,7.75c0,3.3-2.26,5.43-4.83,5.43c-2.07,0-3.64-0.84-4.91-2.87L76.88,27.47z"/>
	<path d="M94.07,17.5h-3.72v9.03c0,2.16,0.55,2.83,2.48,2.83c0.61,0,1.19-0.13,1.77-0.2l-0.47,2.93c-0.52,0.07-0.99,0.14-2.12,0.14
		c-2.46,0-4.3-2.16-4.3-5.22V17.5h-2.18l0.94-2.87h1.24v-4.18l2.65-0.77v4.95h3.72V17.5z"/>
	<path d="M98.9,26.43c0.88,1.72,2.18,2.76,3.83,2.76c1.9,0,3.75-1.58,5.19-2.97l0.52,3.4c-1.74,1.48-3.37,2.6-5.54,2.6
		c-4.5,0-7.42-4.11-7.42-9.54c0-4.65,3.26-8.6,6.98-8.6c2.98,0,4.75,1.65,6.26,4.69L98.9,26.43z M105.08,18.24
		c-0.61-0.84-1.49-1.11-2.43-1.11c-3.01,0-4.86,2.97-4.52,6.51L105.08,18.24z"/>
	<path d="M111.34,32.23v-17.6l2.54-0.54v2.33h0.06c0.52-1.28,1.85-2.33,3.53-2.33c1.66,0,2.95,0.54,3.64,2.49
		c0.55-1.35,2.23-2.49,4.14-2.49c2.51,0,4.63,1.65,4.63,5.39v12.2l-2.65,0.54V20.09c0-1.89-0.63-3.13-2.26-3.13
		c-1.19,0-3.04,0.84-3.04,3.47v11.26l-2.65,0.54V20.09c0-1.89-0.63-3.13-2.26-3.13c-1.19,0-3.04,0.84-3.04,3.47v11.26L111.34,32.23z
		"/>
	<path d="M137.11,32.23h-0.05l-5.99-17.6l2.57-0.54l3.67,11.06l4.69-11.06h0.05l4.69,11.06l3.75-11.06l2.57,0.54l-6.15,17.6h-0.05
		l-4.83-11.7L137.11,32.23z"/>
	<path class="st0" d="M157.16,26.43c0.88,1.72,2.18,2.76,3.83,2.76c1.9,0,3.75-1.58,5.19-2.97l0.52,3.4
		c-1.74,1.48-3.37,2.6-5.54,2.6c-4.5,0-7.42-4.11-7.42-9.54c0-4.65,3.25-8.6,6.98-8.6c2.98,0,4.75,1.65,6.26,4.69L157.16,26.43z
		 M163.34,18.24c-0.61-0.84-1.49-1.11-2.43-1.11c-3.01,0-4.86,2.97-4.52,6.51L163.34,18.24z"/>
	<path d="M169.61,8.39l2.65-0.54v8.9c1.32-1.92,2.79-2.66,4.83-2.66c3.86,0,7.09,3.94,7.09,8.97c0,5.43-3.31,9.17-7.64,9.17
		c-3.56,0-6.98-3.34-6.92-7.96V8.39z M176.83,29.19c2.7,0,4.69-2.76,4.69-6.03c0-3.3-2.01-6.03-4.69-6.03c-2.7,0-4.86,2.7-4.86,6.03
		C171.98,26.46,174.1,29.19,176.83,29.19z"/>
</g>
<path class="st1" d="M120.5,41C68.86,41,27,31.82,27,20.5c0-7.69,19.3-14.38,47.85-17.89C34.16,4.83,4,12.89,4,22.5
	C4,33.82,45.86,43,97.5,43c16.58,0,32.15-0.95,45.65-2.61C135.9,40.79,128.31,41,120.5,41z"/>
</svg>
